<svg xmlns="http://www.w3.org/2000/svg" viewBox="0 0 1200 1500" width="1200" height="1500" role="img">

  <defs>
    <linearGradient id="g02" x1="0" y1="0" x2="0.35" y2="1">
      <stop offset="0" stop-color="#141B22"/>
      <stop offset="1" stop-color="#07090B"/>
    </linearGradient>
    <radialGradient id="glow02" cx="0.5" cy="0.34" r="0.72">
      <stop offset="0" stop-color="#ffffff" stop-opacity="0.20"/>
      <stop offset="0.55" stop-color="#ffffff" stop-opacity="0.04"/>
      <stop offset="1" stop-color="#ffffff" stop-opacity="0"/>
    </radialGradient>
    <radialGradient id="vig02" cx="0.5" cy="0.45" r="0.78">
      <stop offset="0.45" stop-color="#000000" stop-opacity="0"/>
      <stop offset="1" stop-color="#000000" stop-opacity="0.82"/>
    </radialGradient>
    <filter id="grain02" x="0" y="0" width="100%" height="100%">
      <feTurbulence type="fractalNoise" baseFrequency="0.85" numOctaves="3" seed="7" result="n"/>
      <feColorMatrix in="n" type="saturate" values="0"/>
      <feComponentTransfer><feFuncA type="linear" slope="0.42"/></feComponentTransfer>
    </filter>
    <filter id="soft02" x="-30%" y="-30%" width="160%" height="160%">
      <feGaussianBlur stdDeviation="34"/>
    </filter>
    <filter id="soft202" x="-30%" y="-30%" width="160%" height="160%">
      <feGaussianBlur stdDeviation="9"/>
    </filter>
  </defs>
  <rect width="1200" height="1500" fill="url(#g02)"/>
  <rect width="1200" height="1500" fill="url(#glow02)"/>
  <g><circle cx="430" cy="560" r="150" fill="none" stroke="#fff" stroke-opacity="0.22" stroke-width="2.5"/><circle cx="430" cy="560" r="63" fill="#fff" fill-opacity="0.05"/><circle cx="700" cy="690" r="112" fill="none" stroke="#fff" stroke-opacity="0.2" stroke-width="2.5"/><circle cx="700" cy="690" r="47.04" fill="#fff" fill-opacity="0.05"/><circle cx="540" cy="860" r="86" fill="none" stroke="#fff" stroke-opacity="0.18" stroke-width="2.5"/><circle cx="540" cy="860" r="36.12" fill="#fff" fill-opacity="0.05"/><circle cx="790" cy="930" r="58" fill="none" stroke="#fff" stroke-opacity="0.16" stroke-width="2.5"/><circle cx="790" cy="930" r="24.36" fill="#fff" fill-opacity="0.05"/><circle cx="380" cy="800" r="44" fill="none" stroke="#fff" stroke-opacity="0.14" stroke-width="2.5"/><circle cx="380" cy="800" r="18.48" fill="#fff" fill-opacity="0.05"/><circle cx="660" cy="470" r="50" fill="none" stroke="#fff" stroke-opacity="0.12" stroke-width="2.5"/><circle cx="660" cy="470" r="21" fill="#fff" fill-opacity="0.05"/><path d="M180 1180 H1020" stroke="#fff" stroke-opacity="0.12" stroke-width="1.5" stroke-dasharray="2 14"/></g>
  <text x="1130" y="1436" font-family="Georgia,serif" font-size="300" fill="#ffffff" fill-opacity="0.055" text-anchor="end">02</text>
  <rect width="1200" height="1500" fill="url(#vig02)"/>
  <rect width="1200" height="1500" filter="url(#grain02)" opacity="0.5"/>
</svg>