<svg xmlns="http://www.w3.org/2000/svg" viewBox="0 0 1800 1150" width="1800" height="1150" role="img">

  <defs>
    <linearGradient id="gR0" x1="0" y1="0" x2="0.35" y2="1">
      <stop offset="0" stop-color="#5A2A22"/>
      <stop offset="1" stop-color="#130B0A"/>
    </linearGradient>
    <radialGradient id="glowR0" cx="0.5" cy="0.34" r="0.72">
      <stop offset="0" stop-color="#ffffff" stop-opacity="0.20"/>
      <stop offset="0.55" stop-color="#ffffff" stop-opacity="0.04"/>
      <stop offset="1" stop-color="#ffffff" stop-opacity="0"/>
    </radialGradient>
    <radialGradient id="vigR0" cx="0.5" cy="0.45" r="0.78">
      <stop offset="0.45" stop-color="#000000" stop-opacity="0"/>
      <stop offset="1" stop-color="#000000" stop-opacity="0.82"/>
    </radialGradient>
    <filter id="grainR0" x="0" y="0" width="100%" height="100%">
      <feTurbulence type="fractalNoise" baseFrequency="0.85" numOctaves="3" seed="5" result="n"/>
      <feColorMatrix in="n" type="saturate" values="0"/>
      <feComponentTransfer><feFuncA type="linear" slope="0.3"/></feComponentTransfer>
    </filter>
    <filter id="softR0" x="-30%" y="-30%" width="160%" height="160%">
      <feGaussianBlur stdDeviation="34"/>
    </filter>
    <filter id="soft2R0" x="-30%" y="-30%" width="160%" height="160%">
      <feGaussianBlur stdDeviation="9"/>
    </filter>
  </defs>
  <rect width="1800" height="1150" fill="url(#gR0)"/>
  <rect width="1800" height="1150" fill="url(#glowR0)"/>
  <g><path d="M-60 300 Q900 240 1860 300" fill="none" stroke="#fff" stroke-opacity="0.3" stroke-width="14"/><path d="M-60 450 Q900 390 1860 450" fill="none" stroke="#fff" stroke-opacity="0.25" stroke-width="12"/><path d="M-60 600 Q900 540 1860 600" fill="none" stroke="#fff" stroke-opacity="0.19999999999999998" stroke-width="10"/><path d="M-60 750 Q900 690 1860 750" fill="none" stroke="#fff" stroke-opacity="0.14999999999999997" stroke-width="8"/><path d="M-60 900 Q900 840 1860 900" fill="none" stroke="#fff" stroke-opacity="0.09999999999999998" stroke-width="6"/><g filter="url(#softR0)"><ellipse cx="900" cy="700" rx="180" ry="300" fill="#000" fill-opacity="0.75"/><circle cx="900" cy="360" r="120" fill="#000" fill-opacity="0.8"/></g><circle cx="900" cy="330" r="420" fill="none" stroke="#fff" stroke-opacity="0.09" stroke-width="2"/></g>
  <rect width="1800" height="1150" fill="url(#vigR0)" opacity="0.42"/>
  <rect width="1800" height="1150" filter="url(#grainR0)" opacity="0.45"/>
</svg>